<mxfile host="app.diagrams.net" modified="2023-07-11T06:35:22.008Z" agent="Mozilla/5.0 (Windows NT 10.0; Win64; x64) AppleWebKit/537.36 (KHTML, like Gecko) Chrome/114.0.0.0 Safari/537.36" version="21.6.1" etag="thfbTYu6zod7RxFs16BO" type="github">
  <diagram name="페이지-1" id="M-E7lspW-Eo8m702CDar">
    <mxGraphModel>
      <root>
        <mxCell id="0" />
        <mxCell id="1" parent="0" />
      </root>
    </mxGraphModel>
  </diagram>
</mxfile>
